<svg xmlns="http://www.w3.org/2000/svg" viewBox="0 0 410 404"><defs><linearGradient id="a" x1="-53.8%" x2="57.1%" y1="2.6%" y2="89.4%"><stop stop-color="#41D1FF"/><stop offset="1" stop-color="#BD34FE"/></linearGradient><linearGradient id="b" x1="43.7%" x2="50.3%" y1="2.3%" y2="89.6%"><stop stop-color="#FFEA83"/><stop offset=".08" stop-color="#FFDD35"/><stop offset="1" stop-color="#FFA800"/></linearGradient></defs><path fill="url(#a)" d="M399.9 59.3L215.4 388.9c-3.7 6.7-13.3 6.8-17.1.2L9.1 59.4c-4.2-7.1 2.5-15.8 10.2-13.7l185 49.3a10 10 0 005.2 0l180.1-49.1c7.7-2.1 14.5 6.4 10.3 13.6z"/><path fill="url(#b)" d="M283.1 2.2L156.3 39.6c-4.5 1.3-7.6 5.3-7.6 10v172.8c0 7.3 7.1 12.5 14.2 10.2l36.9-12a10 10 0 016.6 0l71.8 23.4c7.1 2.3 14.2-2.9 14.2-10.2V12.1c0-6.8-6.6-11.7-13.3-9.9z"/></svg>
